{"title":"Carry On Jatta [2012].480p.DVDRip.Punjabi.6Ch.by K@rtik [ExD Exc","uid":7604881,"size":739401048,"categoryP":"video","categoryS":"movies","magnet":"?xt=urn:btih:f78a6da8bdaf99ed0db6f614d10429a42bfbe58f&amp;dn=Carry+On+Jatta+%5B2012%5D.480p.DVDRip.Punjabi.6Ch.by+K%40rtik+%5BExD+Exc&amp;tr=udp%3A%2F%2Ftracker.openbittorrent.com%3A80&amp;tr=udp%3A%2F%2Fopen.demonii.com%3A1337&amp;tr=udp%3A%2F%2Ftracker.coppersurfer.tk%3A6969&amp;tr=udp%3A%2F%2Fexodus.desync.com%3A6969","seeders":1,"leechers":0,"uploader":"TeamExD","files":4,"time":1346921762,"description":"Format                                   : Matroska\nFormat version                           : Version 2\nFile size                                : 696 MiB\nDuration                                 : 2h 17mn\nOverall bit rate                         : 708 Kbps\nMovie name                               : Carry On Jatta [2012].480p.DVDRip.x264.Punjabi.6Ch.by K@rtik [ExD Exclusive]\nCodec ID                                 : V_MPEG4/ISO/AVC\nDuration                                 : 2h 17mn\nBit rate                                 : 579 Kbps\nWidth                                    : 720 pixels\nHeight                                   : 308 pixels\nDisplay aspect ratio                     : 2.35:1\nFrame rate                               : 29.970 fps\nStream size                              : 556 MiB (80%)\nTitle                                    : K@rtik\nCodec ID                                 : A_AC3\nDuration                                 : 2h 17mn\nBit rate mode                            : Constant\nBit rate                                 : 128 Kbps\nChannel(s)                               : 6 channels\nChannel positions                        : Front: L C R, Side: L R, LFE\nSampling rate                            : 48.0 KHz\nBit depth                                : 16 bits\nCompression mode                         : Lossy\nStream size                              : 126 MiB (18%)\nTitle                                    : K@rtik\nLanguage                                 : Panjabi &lt;a href=&quot;\nhttp://img210.imageshack.us/img210/5512/exdp.jpg&quot; rel=&quot;nofollow&quot; target=&quot;_NEW&quot;&gt;\nhttp://img210.imageshack.us/img210/5512/exdp.jpg&lt;/a&gt;\n &lt;a href=&quot;\nhttp://img13.imageshack.us/img13/3616/63532704.png&quot; rel=&quot;nofollow&quot; target=&quot;_NEW&quot;&gt;\nhttp://img13.imageshack.us/img13/3616/63532704.png&lt;/a&gt; &lt;a href=&quot;\nhttp://img696.imageshack.us/img696/628/83681717.png&quot; rel=&quot;nofollow&quot; target=&quot;_NEW&quot;&gt;\nhttp://img696.imageshack.us/img696/628/83681717.png&lt;/a&gt; &lt;a href=&quot;\nhttp://img854.imageshack.us/img854/7884/28211619.png&quot; rel=&quot;nofollow&quot; target=&quot;_NEW&quot;&gt;\nhttp://img854.imageshack.us/img854/7884/28211619.png&lt;/a&gt; &lt;a href=&quot;\nhttp://img204.imageshack.us/img204/9702/50047008.png&quot; rel=&quot;nofollow&quot; target=&quot;_NEW&quot;&gt;\nhttp://img204.imageshack.us/img204/9702/50047008.png&lt;/a&gt; &lt;a href=&quot;\nhttp://img442.imageshack.us/img442/5954/67363847.png&quot; rel=&quot;nofollow&quot; target=&quot;_NEW&quot;&gt;\nhttp://img442.imageshack.us/img442/5954/67363847.png&lt;/a&gt; &lt;a href=&quot;\nhttp://img824.imageshack.us/img824/139/50409845.png&quot; rel=&quot;nofollow&quot; target=&quot;_NEW&quot;&gt;\nhttp://img824.imageshack.us/img824/139/50409845.png&lt;/a&gt; &lt;a href=&quot;\nhttp://img59.imageshack.us/img59/7123/91456650.png&quot; rel=&quot;nofollow&quot; target=&quot;_NEW&quot;&gt;\nhttp://img59.imageshack.us/img59/7123/91456650.png&lt;/a&gt; &lt;a href=&quot;\nhttp://img4.imageshack.us/img4/3387/18806376.png&quot; rel=&quot;nofollow&quot; target=&quot;_NEW&quot;&gt;\nhttp://img4.imageshack.us/img4/3387/18806376.png&lt;/a&gt; &lt;a href=&quot;\nhttp://img411.imageshack.us/img411/857/41856249.png&quot; rel=&quot;nofollow&quot; target=&quot;_NEW&quot;&gt;\nhttp://img411.imageshack.us/img411/857/41856249.png&lt;/a&gt; &lt;a href=&quot;\nhttp://img196.imageshack.us/img196/3851/39741000.png&quot; rel=&quot;nofollow&quot; target=&quot;_NEW&quot;&gt;\nhttp://img196.imageshack.us/img196/3851/39741000.png&lt;/a&gt;\n[IMG]http://img189.imageshack.us/img189/2563/32301514.png","torrent":{"xt":"urn:btih:f78a6da8bdaf99ed0db6f614d10429a42bfbe58f","amp;dn":"Carry+On+Jatta+%5B2012%5D.480p.DVDRip.Punjabi.6Ch.by+K%40rtik+%5BExD+Exc","amp;tr":["udp%3A%2F%2Ftracker.openbittorrent.com%3A80","udp%3A%2F%2Fopen.demonii.com%3A1337","udp%3A%2F%2Ftracker.coppersurfer.tk%3A6969","udp%3A%2F%2Fexodus.desync.com%3A6969"],"infoHash":"f78a6da8bdaf99ed0db6f614d10429a42bfbe58f","infoHashBuffer":{"type":"Buffer","data":[247,138,109,168,189,175,153,237,13,182,246,20,209,4,41,164,43,251,229,143]},"announce":[],"urlList":[]}}